<?xml version="1.0" encoding="UTF-8"?>
<svg version="1.1" xmlns="http://www.w3.org/2000/svg" width="599" height="476">
<path d="M0 0 C0.98967773 0.00027191 1.97935547 0.00054382 2.99902344 0.00082397 C24.4653803 0.02789952 45.41418937 1.44973539 66.62988281 4.81835938 C68.81062194 5.15800478 70.99304613 5.46682928 73.1796875 5.765625 C101.16309722 9.77323241 128.30169549 18.55906034 154.5625 28.75 C155.7165332 29.19706299 156.87056641 29.64412598 158.05957031 30.10473633 C164.71929283 32.73699021 171.0171173 35.64942538 177.26147461 39.16381836 C181.61984283 40.79300958 184.78239323 39.73664882 188.91015625 37.875 C190.47056641 37.0396875 190.47056641 37.0396875 192.0625 36.1875 C209.38945041 27.24342165 227.33833954 20.75625592 246 15.1875 C246.83692383 14.93484375 247.67384766 14.6821875 248.53613281 14.421875 C283.99074183 3.79877117 320.97305612 -0.0176736 357.85644531 0.05712891 C360.99549181 0.0624923 364.13439529 0.05714748 367.2734375 0.05078125 C382.28709224 0.04479686 397.32263379 0.15099974 412.1875 2.5 C413.0220874 2.63116211 413.8566748 2.76232422 414.71655273 2.89746094 C426.81287313 4.89162808 436.95179418 7.84720049 447 15.1875 C447.76054688 15.71214844 448.52109375 16.23679687 449.3046875 16.77734375 C449.86414063 17.24269531 450.42359375 17.70804688 451 18.1875 C451 18.8475 451 19.5075 451 20.1875 C451.66 20.1875 452.32 20.1875 453 20.1875 C453 20.8475 453 21.5075 453 22.1875 C453.99 22.5175 454.98 22.8475 456 23.1875 C458.0213576 25.62617013 459.47329421 28.41978775 461 31.1875 C461.46148438 32.00734375 461.92296875 32.8271875 462.3984375 33.671875 C468.18491254 44.97724242 467.14957961 57.81130249 467.12698364 70.22900391 C467.12813928 71.58404393 467.12972976 72.93908363 467.13171089 74.2941227 C467.13584341 77.97518811 467.13384134 81.65622723 467.13072467 85.33729267 C467.12844576 89.3237201 467.1319625 93.31014326 467.13470459 97.29656982 C467.13913476 105.08923125 467.1381981 112.88188301 467.13529195 120.67454481 C467.13302707 127.01181079 467.13273009 133.34907407 467.13381577 139.68634033 C467.13404561 141.04290959 467.13404561 141.04290959 467.13428011 142.42688429 C467.13459986 144.26451858 467.13492407 146.10215286 467.1352527 147.93978715 C467.13809943 165.14275973 467.13483314 182.34572696 467.12945233 199.54869866 C467.12498503 214.28702574 467.12576119 229.02534494 467.13037109 243.76367188 C467.13573112 260.90806139 467.13782481 278.05244623 467.13475883 295.19683647 C467.1344403 297.0274442 467.13412593 298.85805194 467.13381577 300.68865967 C467.13366149 301.58918804 467.13350721 302.48971641 467.13334826 303.41753352 C467.1324874 309.74200022 467.13393671 316.06646394 467.13629532 322.39093018 C467.13910939 330.10574289 467.13832126 337.82054544 467.13301457 345.535357 C467.13039919 349.4662116 467.12933556 353.3970493 467.13266373 357.32790375 C467.13567158 360.93518058 467.13396017 364.54242503 467.12868617 368.14969897 C467.1270626 370.05341583 467.1302793 371.95713498 467.13374341 373.86084938 C467.09371143 391.69575948 466.49631948 406.43631999 454 420.1875 C453.40445313 420.88617188 452.80890625 421.58484375 452.1953125 422.3046875 C443.18389887 432.21350332 431.00604324 436.19854591 418 437.1875 C414.89784327 437.32681513 411.79981972 437.37037907 408.69482422 437.39282227 C407.82529617 437.40272186 406.95576813 437.41262146 406.05989075 437.42282104 C403.22484939 437.4540638 400.38979135 437.47904397 397.5546875 437.50390625 C395.5735738 437.52450805 393.59246417 437.5455053 391.61135864 437.56687927 C386.42638474 437.62176707 381.24137338 437.67132154 376.05633545 437.71972656 C370.75366936 437.77018648 365.45105688 437.82574402 360.1484375 437.88085938 C349.76567092 437.98803301 339.38285756 438.08956657 329 438.1875 C328.66806641 438.87457031 328.33613281 439.56164062 327.99414062 440.26953125 C327.55263672 441.17058594 327.11113281 442.07164062 326.65625 443 C326.22119141 443.89332031 325.78613281 444.78664063 325.33789062 445.70703125 C322.61365744 450.75779934 319.37135475 453.42514395 314 455.1875 C306.36870557 456.02782179 299.27193325 455.98805554 293 451.1875 C288.81882578 447.46732704 287.40334144 443.52904738 286 438.1875 C285.28089502 438.18614347 284.56179004 438.18478694 283.820894 438.18338931 C241.18271737 438.10270558 198.54457328 438.01173718 155.90644751 437.90744839 C150.78463707 437.89492981 145.66282641 437.88249699 140.54101562 437.87011719 C139.01155183 437.8664182 139.01155183 437.8664182 137.45118979 437.86264448 C120.95026342 437.8229416 104.44933023 437.79018333 87.94838402 437.76000018 C71.01167972 437.72886505 54.07500436 437.69024683 37.13833261 437.64470994 C26.69100934 437.6168557 16.2437072 437.59480938 5.79635683 437.58023749 C-1.37180341 437.56967975 -8.53992271 437.55184076 -15.70805207 437.52833296 C-19.84109404 437.51499194 -23.97407875 437.50480674 -28.1071434 437.50328636 C-31.8974975 437.5018209 -35.68771392 437.49112971 -39.47802565 437.47336559 C-41.48527768 437.46628348 -43.49255675 437.46883861 -45.49981904 437.47183573 C-61.97410963 437.37062829 -77.06764068 434.58341438 -89.38671875 422.9296875 C-103.28959135 408.2684764 -104.15770698 391.85028666 -104.13371277 372.5443573 C-104.13558426 371.18380699 -104.1378863 369.82325722 -104.14057809 368.46270829 C-104.14666062 364.7478742 -104.14656671 361.03306272 -104.14538372 357.31822479 C-104.14517881 353.30243263 -104.15070697 349.28664757 -104.15544128 345.27085876 C-104.16372862 337.41248045 -104.16649525 329.55410963 -104.16705366 321.69572731 C-104.16752968 315.30543916 -104.1695887 308.91515347 -104.17275429 302.5248661 C-104.18155518 284.38841558 -104.18617448 266.25197097 -104.18542381 248.11551829 C-104.18538386 247.13887919 -104.1853439 246.16224009 -104.18530273 245.15600586 C-104.18526185 244.17816804 -104.18522097 243.20033021 -104.18517885 242.19286094 C-104.18477242 226.34634595 -104.19434287 210.49985473 -104.2084411 194.65334662 C-104.2228186 178.36383682 -104.22971055 162.07433859 -104.22884732 145.78482229 C-104.22851586 136.64686886 -104.23124096 127.50894036 -104.24202538 118.37099266 C-104.2511484 110.59126899 -104.2532908 102.81158155 -104.24651595 95.03185483 C-104.24326 91.06670272 -104.24316051 87.10162004 -104.2518692 83.13647461 C-104.25977608 79.49883639 -104.25826046 75.86132219 -104.24958507 72.22368685 C-104.24734261 70.30114212 -104.25484565 68.37859341 -104.26282471 66.45606393 C-104.19803816 49.98417551 -101.86569149 34.21972985 -90.625 21.5 C-89.75875 20.736875 -88.8925 19.97375 -88 19.1875 C-87.08734375 18.34058594 -87.08734375 18.34058594 -86.15625 17.4765625 C-79.54626647 11.45130828 -73.15739011 7.85597215 -64.5625 5.5625 C-63.38506226 5.24394043 -63.38506226 5.24394043 -62.18383789 4.91894531 C-42.02656286 -0.314603 -20.69196499 -0.0214602 0 0 Z " fill="#85BFB2" transform="translate(117,9.8125)"/>
<path d="M0 0 C1.2888913 -0.01045349 1.2888913 -0.01045349 2.6038208 -0.02111816 C5.40520084 -0.03858791 8.20638003 -0.04485218 11.0078125 -0.046875 C11.96766052 -0.04788208 12.92750854 -0.04888916 13.91644287 -0.04992676 C54.23442638 -0.0214163 93.23031837 6.36823416 132.0078125 17.265625 C133.1419458 17.58176758 134.2760791 17.89791016 135.44458008 18.22363281 C146.78937412 21.49157703 157.37134086 26.19055335 168.0078125 31.265625 C168.905 31.68650391 169.8021875 32.10738281 170.7265625 32.54101562 C171.60054687 32.95673828 172.47453125 33.37246094 173.375 33.80078125 C174.1469873 34.16695557 174.91897461 34.53312988 175.71435547 34.91040039 C176.9114917 35.55029907 176.9114917 35.55029907 178.1328125 36.203125 C179.15781168 36.63087093 180.18281086 37.05861687 181.23887062 37.4993248 C184.58477517 40.62539221 184.59794666 41.27935669 184.87109947 45.66164017 C184.8964216 48.02651542 184.88805928 50.39188241 184.8543396 52.75665283 C184.85946615 54.05864018 184.8645927 55.36062753 184.8698746 56.70206904 C184.8833103 60.31913165 184.85926703 63.93513113 184.82920623 67.55205822 C184.8033297 71.45113809 184.81206123 75.35015653 184.81661987 79.2492981 C184.8197682 86.00579317 184.80092068 92.76194098 184.76719284 99.51834869 C184.71845987 109.2869552 184.7028072 119.05539355 184.69526489 128.82410845 C184.68212847 144.67254774 184.64218628 160.52080188 184.58544922 176.36914062 C184.5303871 191.76561557 184.48791068 207.16204025 184.46240234 222.55859375 C184.460826 223.50740745 184.45924966 224.45622115 184.45762555 225.43378678 C184.44979541 230.19363858 184.44221314 234.95349074 184.43475413 239.71334314 C184.37253931 279.21006674 184.26684776 318.70658366 184.1328125 358.203125 C180.76462521 357.4228318 178.05697222 356.24348024 174.9921875 354.62109375 C174.00347656 354.10095703 173.01476562 353.58082031 171.99609375 353.04492188 C170.96871094 352.49900391 169.94132813 351.95308594 168.8828125 351.390625 C155.95779656 344.19922547 155.95779656 344.19922547 142.1328125 339.203125 C142.1328125 338.543125 142.1328125 337.883125 142.1328125 337.203125 C141.49472656 337.07035156 140.85664063 336.93757813 140.19921875 336.80078125 C139.37292969 336.62417969 138.54664063 336.44757813 137.6953125 336.265625 C136.45974609 336.00458984 136.45974609 336.00458984 135.19921875 335.73828125 C133.1328125 335.203125 133.1328125 335.203125 132.1328125 334.203125 C129.93281417 333.6870396 127.72229574 333.21551475 125.5078125 332.765625 C120.64233524 331.75281137 115.87886104 330.67214003 111.1328125 329.203125 C111.1328125 328.543125 111.1328125 327.883125 111.1328125 327.203125 C110.09253906 327.08839844 109.05226562 326.97367187 107.98046875 326.85546875 C101.80065033 326.08282171 95.6936535 324.89046189 89.5703125 323.765625 C79.77445235 321.98882237 70.0175054 320.39498836 60.1328125 319.203125 C58.59790161 318.95079102 58.59790161 318.95079102 57.03198242 318.69335938 C52.58238616 318.13392106 48.24472316 318.02328922 43.765625 318 C42.86544144 317.99307632 41.96525787 317.98615265 41.03779602 317.97901917 C38.11109073 317.96169582 35.18456681 317.95541975 32.2578125 317.953125 C30.759655 317.95111588 30.759655 317.95111588 29.23123169 317.94906616 C15.96032435 317.9529153 2.7873602 318.28924055 -10.4296875 319.515625 C-11.72696777 319.63325195 -13.02424805 319.75087891 -14.36083984 319.87207031 C-21.18704211 320.57695479 -27.61729534 321.79473347 -34.2434082 323.5637207 C-40.84678854 325.17293752 -48.82669392 325.68892566 -55.0546875 322.640625 C-59.00649411 319.21572594 -60.5875593 315.797406 -61.13998675 310.67220032 C-61.2543097 307.59210596 -61.26691306 304.52580724 -61.24813843 301.44361877 C-61.2528184 300.26313569 -61.25749837 299.08265262 -61.26232016 297.86639732 C-61.2721947 294.60248789 -61.26866941 291.33891487 -61.25936151 288.075014 C-61.25256273 284.55005243 -61.26305639 281.02513571 -61.27130127 277.50018311 C-61.2846324 270.59956407 -61.28176352 263.69904299 -61.27306335 256.79842014 C-61.26628422 251.18890276 -61.26537107 245.5794128 -61.2686348 239.9698925 C-61.2690945 239.17107132 -61.26955419 238.37225013 -61.27002782 237.54922224 C-61.27098702 235.92634582 -61.27195966 234.30346941 -61.2729456 232.68059301 C-61.28149782 217.4669349 -61.27166829 202.25333105 -61.2555445 187.03968184 C-61.24214404 173.9918408 -61.24446748 160.94407983 -61.25830078 147.89624023 C-61.274364 132.73803497 -61.28067115 117.57987725 -61.27146399 102.42166466 C-61.27050836 100.80450087 -61.26956525 99.18733707 -61.2686348 97.57017326 C-61.26817197 96.77453601 -61.26770914 95.97889875 -61.26723229 95.15915127 C-61.26464444 89.55829933 -61.26900904 83.95747759 -61.27607346 78.35663033 C-61.28449701 71.52820646 -61.28219047 64.69988603 -61.26623122 57.87147398 C-61.25835958 54.38894313 -61.25523785 50.90658458 -61.26517868 47.4240551 C-61.27337265 43.64573635 -61.26309751 39.8679027 -61.24813843 36.08961487 C-61.25483059 34.99320838 -61.26152276 33.89680189 -61.26841772 32.76717097 C-61.21311184 25.5682773 -60.4787529 19.72873829 -56.0703125 13.77734375 C-47.05176097 5.06542297 -36.84460419 3.18393678 -24.7421875 2.140625 C-23.01024866 1.98493065 -21.2784717 1.82742324 -19.546875 1.66796875 C-18.41354736 1.56923462 -18.41354736 1.56923462 -17.25732422 1.46850586 C-14.7994632 1.22614487 -14.7994632 1.22614487 -12.12890625 0.68676758 C-8.06531623 0.08422478 -4.10243903 0.02229309 0 0 Z " fill="#FAFAF4" transform="translate(101.8671875,36.796875)"/>
<path d="M0 0 C1.2515387 0.00149048 2.50307739 0.00298096 3.7925415 0.0045166 C17.99919517 0.03495473 32.17005795 0.10919893 46.3125 1.5625 C47.91750366 1.72625122 47.91750366 1.72625122 49.55493164 1.89331055 C59.33229039 3.11960153 69.31077268 5.60331508 75.9375 13.3125 C80.71673992 20.56776693 81.65701004 26.89855982 81.55895996 35.44622803 C81.56534878 36.63068551 81.5717376 37.815143 81.57832003 39.03549314 C81.59087206 42.29671502 81.58121165 45.55696666 81.56180525 48.81812596 C81.54630292 52.34505242 81.5597992 55.8718884 81.56954956 59.39881897 C81.58403876 66.29642681 81.57188121 73.19373921 81.55043632 80.09131899 C81.52637257 88.12731878 81.52814387 96.16325165 81.53074223 104.19927946 C81.53442815 118.53672278 81.51364096 132.87402723 81.47949219 147.21142578 C81.44637875 161.11933906 81.43223856 175.02710669 81.43847656 188.93505859 C81.4452411 204.09144514 81.44278043 219.24777078 81.42311716 234.40414834 C81.42207768 235.20556735 81.42103819 236.00698636 81.4199672 236.83269079 C81.41787635 238.44219884 81.41576538 240.05170687 81.41363403 241.66121487 C81.4067414 247.26153192 81.40606859 252.86183018 81.40751648 258.46215057 C81.40895635 265.28471752 81.39926179 272.10716579 81.37557012 278.92969337 C81.36371423 282.40996283 81.35658228 285.89006691 81.36240768 289.37035561 C81.36611191 293.1426629 81.3514108 296.91445823 81.33190918 300.68670654 C81.33723711 301.78689235 81.34256503 302.88707817 81.34805441 304.02060294 C81.29882177 309.52453129 81.10467105 313.58916312 77.9375 318.3125 C71.51846661 324.12974901 62.30410389 322.77373132 54.17724609 322.51367188 C44.57137749 321.91719593 35.03054874 320.29040326 25.53100586 318.79321289 C16.93834677 317.6437499 8.46614377 317.16773665 -0.19921875 317.21484375 C-1.20467239 317.2162587 -2.21012604 317.21767365 -3.24604797 317.21913147 C-6.41406404 317.2246674 -9.58200579 317.23720734 -12.75 317.25 C-14.91601459 317.2550233 -17.08203031 317.25958474 -19.24804688 317.26367188 C-24.51955602 317.27461572 -29.7910227 317.29128846 -35.0625 317.3125 C-36.126061 306.93346606 -36.36783796 296.56662114 -36.59765625 286.14453125 C-36.64081089 284.2966808 -36.68422722 282.44883644 -36.72789001 280.60099792 C-36.81830641 276.74242841 -36.90631325 272.88381427 -36.99243164 269.02514648 C-37.10180706 264.12829021 -37.21605728 259.23156338 -37.33200932 254.33485889 C-37.42195702 250.5211492 -37.50983667 246.707394 -37.59707451 242.89362144 C-37.63844592 241.09066329 -37.68029561 239.28771604 -37.72267342 237.48478127 C-37.83782719 232.55026273 -37.94133143 227.61580251 -38.02284622 222.68060684 C-38.04978704 221.07171286 -38.07941063 219.46286203 -38.11143112 217.85406113 C-38.15586281 215.48955164 -38.18625975 213.12526965 -38.21264648 210.76049805 C-38.22789147 210.05102681 -38.24313646 209.34155558 -38.25884342 208.61058521 C-38.28318191 204.92920735 -38.16577534 203.467413 -36.0625 200.3125 C-34.20227885 199.63605595 -32.34076487 198.96294033 -30.47265625 198.30859375 C-15.29316148 192.03505863 -5.49110326 179.45258658 1.51171875 165.08203125 C11.766335 140.29234332 9.26390219 113.35986117 -0.81640625 88.98046875 C-7.73606966 73.02382489 -18.811545 57.11274824 -34.9453125 49.4140625 C-44.46062602 45.80023263 -56.92472039 45.55884868 -66.671875 48.34375 C-73.83789288 51.68541637 -79.54727709 56.72014111 -85.0625 62.3125 C-85.67609375 62.91578125 -86.2896875 63.5190625 -86.921875 64.140625 C-96.19742307 73.9267537 -102.36394042 86.47632264 -106.0625 99.3125 C-106.25714844 99.95960938 -106.45179688 100.60671875 -106.65234375 101.2734375 C-111.90676134 119.20027397 -113.29324473 141.79724941 -106.0625 159.3125 C-105.65 160.55 -105.2375 161.7875 -104.8125 163.0625 C-98.63869235 179.2926129 -87.3812847 190.94515302 -72.296875 198.98828125 C-71.69601074 199.30945923 -71.09514648 199.63063721 -70.47607422 199.96154785 C-69.00587849 200.74706495 -67.53432621 201.53004219 -66.0625 202.3125 C-65.74580538 230.5811486 -66.2865421 258.80644753 -67.0625 287.0625 C-67.09837345 288.36919395 -67.09837345 288.36919395 -67.13497162 289.70228577 C-67.43431274 300.57264372 -67.74374188 311.4426944 -68.0625 322.3125 C-69.94316117 322.7975754 -71.82488448 323.27853375 -73.70703125 323.7578125 C-74.75479736 324.02609863 -75.80256348 324.29438477 -76.88208008 324.57080078 C-79.83459379 325.25935046 -82.74930428 325.76614466 -85.75 326.1875 C-96.41624629 327.86943108 -106.90749274 331.21847131 -116.84765625 335.3984375 C-126.33173077 339.3125 -126.33173077 339.3125 -131.0625 339.3125 C-131.0625 339.9725 -131.0625 340.6325 -131.0625 341.3125 C-131.72636719 341.56644531 -132.39023437 341.82039063 -133.07421875 342.08203125 C-137.66387419 343.87099184 -141.87124437 345.70712488 -146.0625 348.3125 C-147.73572242 349.02040179 -149.40942088 349.72733341 -151.08984375 350.41796875 C-154.22653935 351.84035151 -157.17188451 353.58974845 -160.14453125 355.32421875 C-162.0625 356.3125 -162.0625 356.3125 -164.0625 356.3125 C-164.26846151 316.04784349 -164.42706727 275.78325559 -164.52208797 235.51817762 C-164.53334444 230.76545414 -164.54499333 226.0127317 -164.55688477 221.26000977 C-164.55924556 220.31382106 -164.56160635 219.36763235 -164.56403869 218.39277125 C-164.60320976 203.06843799 -164.67417574 187.74440834 -164.75687516 172.42025524 C-164.84101388 156.69837785 -164.89102364 140.97665955 -164.90929645 125.25456625 C-164.92165104 115.55155694 -164.96068145 105.8494057 -165.0337482 96.14666051 C-165.08129152 89.49474011 -165.09570812 82.84326383 -165.0840124 76.19118582 C-165.07824239 72.35184978 -165.08713587 68.51401375 -165.13534927 64.67494392 C-165.18724926 60.51192252 -165.16940859 56.35209845 -165.14479065 52.18882751 C-165.17100622 50.9757868 -165.1972218 49.76274608 -165.22423178 48.51294655 C-165.09611223 40.51828002 -165.09611223 40.51828002 -162.09978282 37.02285492 C-158.07300919 33.81815206 -153.835355 31.41414786 -149 29.625 C-145.73397853 28.39296172 -142.71182442 27.12560586 -139.625 25.48046875 C-133.42541493 22.33330348 -126.73329279 20.40969149 -120.125 18.3125 C-119.09011948 17.98100952 -119.09011948 17.98100952 -118.03433228 17.64282227 C-107.80762019 14.37198526 -97.60119127 11.41338753 -87.0625 9.3125 C-86.3307959 9.16490234 -85.5990918 9.01730469 -84.84521484 8.86523438 C-82.25186192 8.34313164 -79.65726107 7.82755721 -77.0625 7.3125 C-76.08112061 7.11591797 -75.09974121 6.91933594 -74.08862305 6.71679688 C-70.83220633 6.06972256 -67.57270387 5.44019386 -64.3125 4.8125 C-62.72501953 4.49345703 -62.72501953 4.49345703 -61.10546875 4.16796875 C-40.88581098 0.31322698 -20.5258696 -0.06036921 0 0 Z " fill="#FAFAF4" transform="translate(476.0625,37.6875)"/>
<path d="M0 0 C0.89146729 0.01305176 1.78293457 0.02610352 2.70141602 0.03955078 C18.30395585 0.44822615 27.92015441 7.63886233 38.5 18.625 C52.38564275 34.62612155 61.3861354 57.18691988 62.1875 78.375 C62.25066406 79.44363281 62.31382812 80.51226562 62.37890625 81.61328125 C63.05487181 101.91405328 57.69865363 121.55097989 44.3203125 137.1328125 C36.29488326 145.56980222 28.51939029 152.36858013 17.1875 155.375 C15.67444929 158.40110143 16.06834395 161.52317242 16.09985352 164.83959961 C16.10371598 165.59715262 16.10757845 166.35470564 16.11155796 167.13521481 C16.17002299 175.73933301 16.37420248 184.34007232 16.58984375 192.94140625 C16.63216574 194.69282055 16.674285 196.44423977 16.71621704 198.19566345 C16.80474325 201.87933104 16.89443078 205.56296751 16.98513794 209.24658203 C17.19747116 217.87084179 17.40436819 226.49523256 17.61122704 235.11962509 C17.65683688 237.02037613 17.70252286 238.92112534 17.74828529 240.82187271 C18.09457289 255.21245643 18.41110704 269.60327097 18.69338989 283.99526978 C18.95721185 297.41577191 19.24564144 310.83403711 19.6875 324.25 C19.72302979 325.36826172 19.75855957 326.48652344 19.79516602 327.63867188 C19.95789912 332.18518453 20.19249587 336.67582722 20.71875 341.1953125 C21.3251747 347.89630543 21.1875 354.64662299 21.1875 361.375 C50.8875 361.375 80.5875 361.375 111.1875 361.375 C111.1875 361.705 111.1875 362.035 111.1875 362.375 C81.1575 362.375 51.1275 362.375 20.1875 362.375 C19.8575 364.355 19.5275 366.335 19.1875 368.375 C16.57386533 374.0149485 11.87696077 377.96421154 6.1875 380.375 C-0.22446695 381.41152097 -5.53505085 380.10839198 -10.8125 376.375 C-15.32998894 372.29320796 -17.54528454 367.56744736 -18.05244446 361.50836182 C-18.04714218 360.52108093 -18.0418399 359.53380005 -18.03637695 358.51660156 C-18.03421677 357.3983197 -18.03205658 356.28003784 -18.02983093 355.12786865 C-18.01611954 353.93582825 -18.00240814 352.74378784 -17.98828125 351.515625 C-17.98049149 350.26412659 -17.97270172 349.01262817 -17.9646759 347.72320557 C-17.87381081 336.96338123 -17.54762876 326.21822728 -17.12884521 315.46691895 C-16.88792757 309.21812476 -16.66913037 302.96858178 -16.45703125 296.71875 C-16.43262466 296.00002968 -16.40821808 295.28130936 -16.3830719 294.54080963 C-15.48947401 267.93773459 -14.89384818 241.32459729 -14.23894548 214.71476173 C-14.18734574 212.61873363 -14.13567382 210.52270732 -14.08398056 208.42668152 C-13.65612952 191.07621877 -13.23206615 173.72566515 -12.8125 156.375 C-13.73901367 156.07787109 -14.66552734 155.78074219 -15.62011719 155.47460938 C-31.30161692 150.07315061 -42.22399899 137.62315547 -49.8125 123.375 C-51.66657701 119.30496588 -53.2321654 115.30476642 -54.4375 111 C-55.13711979 107.91295143 -55.13711979 107.91295143 -56.8125 105.375 C-59.29211769 87.9463203 -58.89158627 70.26043913 -53.8125 53.375 C-53.461875 52.158125 -53.11125 50.94125 -52.75 49.6875 C-46.92966208 31.57978203 -34.02850364 12.41340191 -16.8125 3.375 C-11.0572036 0.42716526 -6.42734975 -0.10767701 0 0 Z " fill="#9FA7A5" transform="translate(422.8125,83.625)"/>
<path d="M0 0 C1.74934275 0.48156064 3.49926289 0.96103357 5.25 1.4375 C10.75907807 3.1077565 15.86515123 5.57468517 21.04248047 8.06835938 C23.21794595 9.10372683 25.40657984 10.10748218 27.59765625 11.109375 C37.09339532 15.48015742 46.42497171 19.96515064 55 26 C55 26.33 55 26.66 55 27 C26.87947311 27.11685296 -1.24101734 27.20499799 -29.3617382 27.25906086 C-42.41897579 27.28483151 -55.47606243 27.31996061 -68.53320312 27.37719727 C-79.91512438 27.42706668 -91.29693631 27.45929929 -102.67896378 27.47044247 C-108.70450827 27.47695513 -114.72974001 27.49223869 -120.75518417 27.52865028 C-126.43017558 27.56266526 -132.10472629 27.57304164 -137.77980995 27.56553841 C-139.85905797 27.56691047 -141.93832119 27.5768098 -144.01748085 27.59602737 C-165.4995476 27.78479421 -165.4995476 27.78479421 -173.58157158 20.59254932 C-178.67753175 15.07708642 -180.16788464 10.02431366 -180.07421875 2.7578125 C-180.06350342 1.67902832 -180.05278809 0.60024414 -180.04174805 -0.51123047 C-180.02797119 -1.33252441 -180.01419434 -2.15381836 -180 -3 C-171.00530054 -4.69592797 -162.00428606 -6.35579106 -153 -8 C-151.93362305 -8.19706543 -150.86724609 -8.39413086 -149.76855469 -8.59716797 C-99.79510686 -17.76461072 -48.49989726 -15.63781734 0 0 Z " fill="#C0EAD3" transform="translate(221,393)"/>
<path d="M0 0 C12.57613777 5.38619446 20.10126866 19.36827316 25.03515625 31.40795898 C28.33806631 40.33040353 29.24413514 48.47482795 29.1484375 57.96484375 C29.16003906 59.11919922 29.17164063 60.27355469 29.18359375 61.46289062 C29.13360995 76.14979608 24.34441534 88.44953068 14.25390625 99.19921875 C6.54620549 106.0451136 -2.20871544 108.06015611 -12.29296875 107.80078125 C-21.31692663 106.88673586 -27.81924897 101.8203947 -33.4453125 94.94921875 C-41.24637521 83.79506768 -44.8121255 71.7441007 -44.6640625 58.21484375 C-44.65503906 57.21453125 -44.64601563 56.21421875 -44.63671875 55.18359375 C-44.2210209 37.19311449 -38.22359201 20.505856 -25.5 7.5 C-17.58890801 0.20059038 -10.90457995 -2.92701883 0 0 Z " fill="#E6E7E6" transform="translate(432.2265625,109.59765625)"/>
<path d="M0 0 C0.78848831 -0.01585648 1.57697662 -0.03171295 2.38935852 -0.04804993 C3.62966072 -0.06414558 3.62966072 -0.06414558 4.89501953 -0.08056641 C5.7872673 -0.09286789 6.67951508 -0.10516937 7.59880066 -0.11784363 C10.49184264 -0.14993799 13.38464462 -0.16878744 16.27783203 -0.18212891 C17.75967484 -0.18996902 17.75967484 -0.18996902 19.27145386 -0.19796753 C38.59230636 -0.24496267 58.69685121 0.73532694 77.48168945 5.74755859 C79.87160721 6.30153114 82.15515553 6.40953542 84.60595703 6.50927734 C85.58564453 6.55117188 86.56533203 6.59306641 87.57470703 6.63623047 C88.59048828 6.67554688 89.60626953 6.71486328 90.65283203 6.75537109 C92.19970703 6.82014648 92.19970703 6.82014648 93.77783203 6.88623047 C96.31937073 6.99212791 98.86100399 7.09420553 101.40283203 7.19287109 C101.82270651 16.38345681 101.29074433 23.44178957 96.46533203 31.38037109 C90.29684429 37.81427351 82.73863955 40.45924904 74.05039597 40.82903099 C69.18107565 40.90926424 64.31872157 40.85512301 59.44970703 40.77880859 C57.33694674 40.76759902 55.22417071 40.75906717 53.11138916 40.75308228 C47.58729965 40.73032275 42.06417728 40.67151162 36.54046631 40.6048584 C30.8892525 40.54315659 25.23788033 40.51600796 19.58642578 40.48583984 C8.52473753 40.42175461 -2.53598297 40.31633595 -13.59716797 40.19287109 C-13.59716797 27.32287109 -13.59716797 14.45287109 -13.59716797 1.19287109 C-3.45471037 0.06593136 -3.45471037 0.06593136 0 0 Z " fill="#C0E9D3" transform="translate(455.59716796875,379.80712890625)"/>
<path d="M0 0 C0 11.22 0 22.44 0 34 C-28.05 34 -56.1 34 -85 34 C-66.96429101 15.96429101 -25.80199863 0 0 0 Z " fill="#BFE9D3" transform="translate(406,386)"/>
<path d="M0 0 C0.98967773 0.00027191 1.97935547 0.00054382 2.99902344 0.00082397 C24.4653803 0.02789952 45.41418937 1.44973539 66.62988281 4.81835938 C68.81062194 5.15800478 70.99304613 5.46682928 73.1796875 5.765625 C101.16309722 9.77323241 128.30169549 18.55906034 154.5625 28.75 C155.7165332 29.19706299 156.87056641 29.64412598 158.05957031 30.10473633 C164.71929283 32.73699021 171.0171173 35.64942538 177.26147461 39.16381836 C181.61984283 40.79300958 184.78239323 39.73664882 188.91015625 37.875 C190.47056641 37.0396875 190.47056641 37.0396875 192.0625 36.1875 C209.38945041 27.24342165 227.33833954 20.75625592 246 15.1875 C246.83692383 14.93484375 247.67384766 14.6821875 248.53613281 14.421875 C283.99074183 3.79877117 320.97305612 -0.0176736 357.85644531 0.05712891 C360.99549181 0.0624923 364.13439529 0.05714748 367.2734375 0.05078125 C382.28709224 0.04479686 397.32263379 0.15099974 412.1875 2.5 C413.0220874 2.63116211 413.8566748 2.76232422 414.71655273 2.89746094 C426.81287313 4.89162808 436.95179418 7.84720049 447 15.1875 C447.76054688 15.71214844 448.52109375 16.23679687 449.3046875 16.77734375 C449.86414063 17.24269531 450.42359375 17.70804688 451 18.1875 C451 18.8475 451 19.5075 451 20.1875 C451.66 20.1875 452.32 20.1875 453 20.1875 C453 20.8475 453 21.5075 453 22.1875 C453.99 22.5175 454.98 22.8475 456 23.1875 C458.02135899 25.62617181 459.47364467 28.41959033 461 31.1875 C461.47308594 32.03054687 461.94617188 32.87359375 462.43359375 33.7421875 C465.9906884 40.69514871 466.60827742 46.44210085 466 54.1875 C465.67 54.1875 465.34 54.1875 465 54.1875 C464.86464844 53.32769531 464.72929688 52.46789063 464.58984375 51.58203125 C462.03983367 37.57988007 456.14961842 25.1429833 444.359375 16.69921875 C431.64851938 8.55501159 419.10700235 5.90069468 404.25 4.5625 C401.71343701 4.3214111 399.17697491 4.07925783 396.640625 3.8359375 C395.53235352 3.73458496 394.42408203 3.63323242 393.28222656 3.52880859 C391.08750841 3.30058664 388.8985159 3.00874355 386.72045898 2.65527344 C382.07008431 2.07058167 377.51377754 2.04431624 372.83203125 2.0546875 C371.39617928 2.05325241 371.39617928 2.05325241 369.93132019 2.05178833 C367.91848688 2.0511108 365.90565133 2.05293518 363.89282227 2.05712891 C360.81196205 2.06250094 357.73124645 2.05716034 354.65039062 2.05078125 C352.69010385 2.05144176 350.72981716 2.05272236 348.76953125 2.0546875 C347.84968948 2.05266327 346.92984772 2.05063904 345.98213196 2.04855347 C344.69510628 2.05328171 344.69510628 2.05328171 343.38208008 2.05810547 C342.25459099 2.05929886 342.25459099 2.05929886 341.10432434 2.06051636 C338.95310257 2.19032999 337.07441021 2.62149239 335 3.1875 C333.59416134 3.33862173 332.18445737 3.45608384 330.7734375 3.546875 C282.68716331 7.00212155 227.73920523 15.89629932 186.45703125 42.25390625 C182.47435158 43.76719789 179.05963311 43.04300615 175.16674805 41.42602539 C173.22872245 40.47649215 171.33322704 39.46877739 169.4375 38.4375 C163.17285326 35.16306331 157.01379335 32.60027994 150.30859375 30.33984375 C147.07099288 29.21222597 143.95689165 27.92628377 140.8125 26.5625 C136.19936871 24.59685152 131.63671214 23.14041457 126.765625 21.9609375 C124 21.1875 124 21.1875 120.52734375 19.82421875 C114.60706675 17.56185203 108.45546719 16.14683257 102.3125 14.625 C101.12205078 14.32142578 99.93160156 14.01785156 98.70507812 13.70507812 C91.81272329 11.98480033 84.97784314 10.64039807 77.94604492 9.63867188 C75.38272823 9.24611289 72.89763139 8.75351901 70.375 8.16015625 C65.29326251 6.97650018 60.17152818 6.29172498 55 5.625 C54.08605469 5.49931641 53.17210937 5.37363281 52.23046875 5.24414062 C35.51238548 3.06004083 18.7089469 2.94970609 1.875 2.9375 C0.779599 2.93616058 -0.315802 2.93482117 -1.44439697 2.93344116 C-47.36479637 1.86410789 -47.36479637 1.86410789 -86.81640625 21.84375 C-93.22546722 28.72288521 -96.66597582 36.46887924 -100 45.1875 C-100.33 45.1875 -100.66 45.1875 -101 45.1875 C-101.3660964 39.62565088 -100.49271575 36.39106259 -97.75 31.5625 C-96.84507813 29.93441406 -96.84507813 29.93441406 -95.921875 28.2734375 C-89.38457506 17.77655344 -78.9023869 9.6598032 -67 6.1875 C-66.10152344 5.91550781 -65.20304687 5.64351562 -64.27734375 5.36328125 C-43.54584947 -0.35671381 -21.34066758 -0.02213298 0 0 Z " fill="#F0FAF8" transform="translate(117,9.8125)"/>
<path d="M0 0 C2 2 2 2 2.15234375 4.80078125 C1.35372001 17.85464928 -2.15352722 28.26517849 -11 38 C-11.59554687 38.69867188 -12.19109375 39.39734375 -12.8046875 40.1171875 C-21.81610113 50.02600332 -33.99395676 54.01104591 -47 55 C-50.10215673 55.13931513 -53.20018028 55.18287907 -56.30517578 55.20532227 C-57.60946785 55.22017166 -57.60946785 55.22017166 -58.94010925 55.23532104 C-61.77515061 55.2665638 -64.61020865 55.29154397 -67.4453125 55.31640625 C-69.4264262 55.33700805 -71.40753583 55.3580053 -73.38864136 55.37937927 C-78.57361526 55.43426707 -83.75862662 55.48382154 -88.94366455 55.53222656 C-94.24633064 55.58268648 -99.54894312 55.63824402 -104.8515625 55.69335938 C-115.23432908 55.80053301 -125.61714244 55.90206657 -136 56 C-136.33193359 56.68707031 -136.66386719 57.37414062 -137.00585938 58.08203125 C-137.44736328 58.98308594 -137.88886719 59.88414062 -138.34375 60.8125 C-138.77880859 61.70582031 -139.21386719 62.59914063 -139.66210938 63.51953125 C-142.38634256 68.57029934 -145.62864525 71.23764395 -151 73 C-158.63129443 73.84032179 -165.72806675 73.80055554 -172 69 C-176.18117422 65.27982704 -177.59665856 61.34154738 -179 56 C-179.71910498 55.99864347 -180.43820996 55.99728694 -181.179106 55.99588931 C-223.81728263 55.91520558 -266.45542672 55.82423718 -309.09355249 55.71994839 C-314.21536293 55.70742981 -319.33717359 55.69499699 -324.45898438 55.68261719 C-325.98844817 55.6789182 -325.98844817 55.6789182 -327.54881021 55.67514448 C-344.04973658 55.6354416 -360.55066977 55.60268333 -377.05161598 55.57250018 C-393.98832028 55.54136505 -410.92499564 55.50274683 -427.86166739 55.45720994 C-438.30899066 55.4293557 -448.7562928 55.40730938 -459.20364317 55.39273749 C-466.37180341 55.38217975 -473.53992271 55.36434076 -480.70805207 55.34083296 C-484.84109404 55.32749194 -488.97407875 55.31730674 -493.1071434 55.31578636 C-496.8974975 55.3143209 -500.68771392 55.30362971 -504.47802565 55.28586559 C-506.48527768 55.27878348 -508.49255675 55.28133861 -510.49981904 55.28433573 C-526.97410963 55.18312829 -542.06764068 52.39591438 -554.38671875 40.7421875 C-560.18310577 34.62963391 -565.56788923 28.01248488 -566.3125 19.375 C-566.209375 18.59125 -566.10625 17.8075 -566 17 C-563.52997066 20.04950837 -561.93803224 23.12437059 -560.3125 26.6875 C-554.54027142 38.28840927 -546.38752355 45.32074005 -534.2890625 50.0625 C-524.65904254 53.14410639 -515.07789961 53.15071944 -505.05432129 53.15821838 C-503.63673372 53.16278967 -502.21914748 53.16779051 -500.80156279 53.17318195 C-496.92030225 53.18670799 -493.03905042 53.1941653 -489.15777254 53.20060861 C-484.96699795 53.20863698 -480.77624134 53.22232632 -476.58547974 53.23532104 C-469.32937689 53.2570493 -462.07327219 53.27520709 -454.81715393 53.29092598 C-444.32608087 53.31365791 -433.83502777 53.3417961 -423.34397167 53.37124526 C-406.32209671 53.41888046 -389.30021357 53.46215565 -372.27832031 53.50268555 C-355.74511072 53.54206121 -339.21190838 53.58349239 -322.67871094 53.62768555 C-321.14953489 53.63177196 -321.14953489 53.63177196 -319.58946639 53.63594092 C-314.47507901 53.64962074 -309.36069173 53.66334094 -304.24630451 53.67708123 C-261.83088481 53.79098203 -219.41544941 53.8978055 -177 54 C-176.74532959 54.68707031 -176.49065918 55.37414062 -176.22827148 56.08203125 C-175.88352783 56.98308594 -175.53878418 57.88414062 -175.18359375 58.8125 C-174.67783813 60.15248047 -174.67783813 60.15248047 -174.16186523 61.51953125 C-172.06846488 65.98873645 -168.93450894 67.90203546 -164.6875 70.3125 C-159.88777641 71.54033627 -155.36643542 72.06633138 -150.74609375 69.984375 C-145.62809185 66.85513627 -142.10075188 64.18818474 -140.3125 58.3125 C-140.06113281 57.50425781 -139.80976563 56.69601562 -139.55078125 55.86328125 C-139.36902344 55.24839844 -139.18726563 54.63351562 -139 54 C-137.89103363 53.99413376 -136.78206726 53.98826752 -135.63949585 53.98222351 C-125.13639101 53.924757 -114.63348848 53.85187252 -104.13059044 53.76428509 C-98.73225807 53.71975136 -93.33399823 53.68045868 -87.93554688 53.65356445 C-82.71582673 53.62736078 -77.49638826 53.58684041 -72.27684402 53.53681374 C-70.2956152 53.52025956 -68.31433778 53.50867461 -66.33304977 53.50238609 C-47.32299778 53.43600336 -29.28170817 51.97649935 -14.5625 38.4375 C-4.47094346 27.54792911 -1.01116272 14.47559264 0 0 Z " fill="#FAFDFC" transform="translate(582,392)"/>
<path d="M0 0 C2.47002934 3.04950837 4.06196776 6.12437059 5.6875 9.6875 C11.45972858 21.28840927 19.61247645 28.32074005 31.7109375 33.0625 C36.75776051 34.67748336 41.73162009 35.51218705 47 36 C47 36.33 47 36.66 47 37 C34.09447249 37.89864408 22.99914422 33.60246825 13.03125 25.375 C6.85544083 19.52423341 0.2069321 11.4837006 -0.125 2.6875 C-0.08375 1.800625 -0.0425 0.91375 0 0 Z " fill="#F6FDFC" transform="translate(16,409)"/>
<path d="M0 0 C1.09765625 1.75390625 1.09765625 1.75390625 2 4 C0.65386155 9.24889642 -2.88995317 13.60921137 -7 17 C-9.3125 17.8125 -9.3125 17.8125 -11 18 C-11.33 17.34 -11.66 16.68 -12 16 C-10.6078125 15.1028125 -10.6078125 15.1028125 -9.1875 14.1875 C-4.85234179 11.21239143 -2.85328255 9.37507125 -1.3125 4.3125 C-1.06113281 3.50425781 -0.80976563 2.69601562 -0.55078125 1.86328125 C-0.36902344 1.24839844 -0.18726563 0.63351562 0 0 Z " fill="#EDF1F0" transform="translate(443,446)"/>
<path d="M0 0 C2.74054368 3.32486381 4.42376049 6.83057886 6.1875 10.75 C6.71730469 11.92046875 7.24710938 13.0909375 7.79296875 14.296875 C8.19128906 15.18890625 8.58960938 16.0809375 9 17 C7.171875 16.79296875 7.171875 16.79296875 5 16 C1.57046866 11.20768121 -0.78437264 5.96123203 0 0 Z " fill="#E9F7F4" transform="translate(16,409)"/>
<path d="M0 0 C1.03930664 0.07831055 1.03930664 0.07831055 2.09960938 0.15820312 C3.79604437 0.28689819 5.49184863 0.42386184 7.1875 0.5625 C7.1875 0.8925 7.1875 1.2225 7.1875 1.5625 C0.5875 1.8925 -6.0125 2.2225 -12.8125 2.5625 C-12.8125 1.9025 -12.8125 1.2425 -12.8125 0.5625 C-8.46757229 -0.57646163 -4.42629215 -0.36850471 0 0 Z " fill="#DBF0EC" transform="translate(85.8125,11.4375)"/>
<path d="M0 0 C5.33555495 -0.2134222 10.06208162 -0.34551123 15 2 C15.33 2.99 15.66 3.98 16 5 C10.72 3.68 5.44 2.36 0 1 C0 0.67 0 0.34 0 0 Z " fill="#98C9BD" transform="translate(216,49)"/>
<path d="M0 0 C0.33 0 0.66 0 1 0 C0.88529863 1.75070517 0.75780972 3.50057536 0.625 5.25 C0.55539062 6.22453125 0.48578125 7.1990625 0.4140625 8.203125 C0.01534751 10.89633189 -0.63507063 12.66963279 -2 15 C-3.60728272 10.9817932 -2.27930357 7.98005555 -1 4 C-0.65864073 2.66869885 -0.32074044 1.33641852 0 0 Z " fill="#A5AEAB" transform="translate(483,178)"/>
<path d="M0 0 C0.99 0.99 1.98 1.98 3 3 C-3.93 2.505 -3.93 2.505 -11 2 C-6.74130098 -0.12934951 -4.6658917 -0.42417197 0 0 Z " fill="#CFEBE5" transform="translate(518,11)"/>
<path d="M0 0 C1.9453125 0.77734375 1.9453125 0.77734375 4.125 1.9375 C5.21167969 2.50791016 5.21167969 2.50791016 6.3203125 3.08984375 C6.87460937 3.39019531 7.42890625 3.69054687 8 4 C8 4.66 8 5.32 8 6 C4.08788267 4.84414715 1.1254959 3.64465038 -2 1 C-1.34 0.67 -0.68 0.34 0 0 Z " fill="#8EC4B8" transform="translate(270,66)"/>
<path d="M0 0 C3.85645121 -0.22036864 6.49223216 0.39644899 10 2 C10 2.33 10 2.66 10 3 C6.7 3 3.4 3 0 3 C0 2.01 0 1.02 0 0 Z " fill="#9BCABF" transform="translate(505,36)"/>
<path d="M0 0 C2.97 0.495 2.97 0.495 6 1 C3.03821227 2.67110042 0.62928808 3.32682752 -2.75 3.625 C-3.54921875 3.69976562 -4.3484375 3.77453125 -5.171875 3.8515625 C-5.77515625 3.90054688 -6.3784375 3.94953125 -7 4 C-7 3.34 -7 2.68 -7 2 C-4.69 2 -2.38 2 0 2 C0 1.34 0 0.68 0 0 Z " fill="#94C7BB" transform="translate(383,46)"/>
<path d="M0 0 C3.3 0.99 6.6 1.98 10 3 C9.01 3.66 8.02 4.32 7 5 C3.875 4.3125 3.875 4.3125 1 3 C0.67 2.01 0.34 1.02 0 0 Z " fill="#95C7BB" transform="translate(253,34)"/>
<path d="M0 0 C0.99 0.33 1.98 0.66 3 1 C1.515 3.475 1.515 3.475 0 6 C-0.99 5.67 -1.98 5.34 -3 5 C-2.01 3.35 -1.02 1.7 0 0 Z " fill="#E0F3F0" transform="translate(22,37)"/>
<path d="M0 0 C3.96 0.33 7.92 0.66 12 1 C12 1.33 12 1.66 12 2 C9.36 2.33 6.72 2.66 4 3 C4 2.34 4 1.68 4 1 C2.68 0.67 1.36 0.34 0 0 Z " fill="#9ECCC1" transform="translate(163,14)"/>
</svg>
